# xmcd CD database file
#
# Track frame offsets:
#	208
#	41498
#	68941
#	95634
#	114890
#	146549
#	177541
#	199744
#	219523
#	241409
#	257104
#	282968
#
# Disc length: 4019 seconds
#
# Revision: 0
# Processed by: cddbd v1.4PL0 Copyright (c) Steve Scherf et al.
# Submitted via: CDex 1.40Release
#
DISCID=b50fb10c
DTITLE=Gary B. B. Coleman - Retrospectives
DYEAR=1998
DGENRE=Blues
TTITLE0=The sky is cryin'
TTITLE1=Too much weekend
TTITLE2=Welfare Cadillac (featuring Jerry McCain)
TTITLE3=Maybe love wasn't meant for me
TTITLE4=Blues at sunrise
TTITLE5=What's the name of that thing
TTITLE6=Romance without finance is a nuisance
TTITLE7=Don't give that recipe away
TTITLE8=St. James infirmary
TTITLE9=If you can beat me rockin'
TTITLE10=I fell in love on a one night stand
TTITLE11=I just can't love these blues
EXTD=YEAR: 1998 ID3G: 0
EXTT0=
EXTT1=
EXTT2=
EXTT3=
EXTT4=
EXTT5=
EXTT6=
EXTT7=
EXTT8=
EXTT9=
EXTT10=
EXTT11=
PLAYORDER=
